<svg xmlns="http://www.w3.org/2000/svg" id="Layer_2" data-name="Layer 2" viewBox="0 0 670.6 173.4" fill="currentColor" stroke="currentColor" class="icon icon-wj-powered" aria-hidden="true" focusable="false">
  <g id="Layer_1-2" data-name="Layer 1">
    <g id="Layer_2-2" data-name="Layer 2">
      <g id="Layer_2-2" data-name="Layer 2-2">
        <path d="M320.5,80.2L300.1,0h20.2l10.3,54.4h.2L343.3,0h19l12.4,54.4h.2L385.3,0h20.2l-20.4,80.2h-20.2l-12-50h-.2l-12,50h-20.2,0Z" />
        <path d="M402.4,65.2c0-11.9,9.8-16.5,22-19.1,6.3-1.3,15.1-2.2,15.1-8s-2.5-5.2-7.6-5.2-9.6,2.7-10.2,8.3h-17c.6-11,8.6-20.4,28-20.4s24.2,6.3,24.2,23.9v22.2c0,3,.4,4.4,2.1,4.4s.8,0,1.5-.1v8.5c-3.6.7-7.3,1-9.9,1-7.2,0-9.9-2.7-10.8-7.5h-.2c-4,5.1-10.6,8.8-19,8.8s-18.3-6.6-18.3-16.8h.1ZM439.5,57v-4.8c-2.4.9-5,1.6-9.8,2.7-6.6,1.6-9,4.4-9,8.4s2.8,6.4,7.4,6.4c7.2,0,11.3-6,11.3-12.7h.1Z" />
        <path d="M504.5,22.8v15.7c-1.5-.2-2.5-.3-3.7-.3-8.1,0-15.5,5-15.5,15.3v26.7h-17.9V22.8h17.9v9.4h.2c2.8-6,7.7-9.9,14-9.9s2.9,0,4.9.4h0l.1.1Z" />
        <path d="M547.1,22.8v15.7c-1.5-.2-2.5-.3-3.7-.3-8.1,0-15.5,5-15.5,15.3v26.7h-17.9V22.8h17.9v9.4h.2c2.8-6,7.7-9.9,14-9.9s2.9,0,4.9.4h0l.1.1Z" />
        <path d="M607.6,56.3h-41.3c0,8,5.6,12.3,12.3,12.3s9.1-2.9,10.2-5.8h18.3c-3.2,11.7-12.8,19.3-28.9,19.3s-29.8-12.7-29.8-30.6,10.5-30.6,29.8-30.6,29.4,11.6,29.4,32.8v2.7h0v-.1ZM589.5,45.2c0-7.4-4.4-11.3-11.3-11.3s-11.3,3.9-11.8,11.3h23.1Z" />
        <path d="M670.1,41.4v38.8h-17.9v-33.1c0-8.6-3-11.6-9-11.6s-10.8,3.5-10.8,11.4v33.2h-17.9V22.8h17.9v8.3h.2c3-5.3,8.6-10.1,18.8-10.1s18.6,7.3,18.6,20.4h.1Z" />
        <path d="M287.3,144.8v-6.7h17.9v6.7c0,7.6,1.8,12,8.4,12s8.4-4.4,8.4-12v-53.5h20.2v53.5c0,15.5-5.5,28.5-27.5,28.5s-27.5-13-27.5-28.5h.1Z" />
        <path d="M348.4,156.4c0-11.9,9.8-16.5,22-19.1,6.3-1.4,15.1-2.2,15.1-8s-2.5-5.2-7.6-5.2-9.6,2.7-10.2,8.3h-17c.6-11,8.6-20.4,28-20.4s24.2,6.3,24.2,23.9v22.2c0,3,.4,4.4,2.1,4.4s.8,0,1.5-.1v8.5c-3.6.7-7.3,1-9.9,1-7.2,0-9.9-2.7-10.8-7.5h-.2c-4,5.1-10.6,8.8-19,8.8s-18.3-6.6-18.3-16.8h.1ZM385.5,148.2v-4.8c-2.4.9-5,1.6-9.8,2.7-6.6,1.6-9,4.4-9,8.4s2.8,6.4,7.4,6.4c7.2,0,11.3-6.1,11.3-12.7h.1Z" />
        <path d="M502.5,132.7v38.8h-18.2v-33.1c0-8.6-1.8-11.6-8.2-11.6s-9.3,3.5-9.3,11.4v33.2h-17.9v-33.1c0-8.6-1.8-11.6-8.2-11.6s-9.3,3.5-9.3,11.4v33.2h-17.9v-57.4h17.9v8.3h.2c3-5.3,9.3-10.1,17.9-10.1s12.8,4.1,15,10.1h.2c4.9-5.7,10-10.1,19.3-10.1s18.4,7.3,18.4,20.4h0l.1.2Z" />
        <path d="M568.2,147.6h-41.3c0,8,5.6,12.3,12.3,12.3s9.1-2.9,10.2-5.8h18.3c-3.2,11.7-12.8,19.3-28.9,19.3s-29.8-12.7-29.8-30.6,10.5-30.6,29.8-30.6,29.4,11.6,29.4,32.8v2.7h0v-.1ZM550.1,136.5c0-7.4-4.4-11.3-11.3-11.3s-11.3,3.9-11.8,11.3h23.1Z" />
        <path d="M572.2,152.4h16.8c.6,5.7,4.4,8.5,11.2,8.5s7.6-1.7,7.6-4.9c0-5.2-5.7-5.7-14-7.6-10.1-2.4-20.5-6.4-20.5-18.1s9-18.1,25.1-18.1,25.6,9.3,26.1,19.4h-16.8c-.6-4.6-3-7.1-9-7.1s-7.1,1.8-7.1,4.6,3.4,4,12,6.1c11.3,2.7,22.5,6.1,22.5,19.4s-9.1,18.6-25.7,18.6-27.9-9.6-28.4-20.9h0l.2.1Z" />
        <path d="M627.8,112v-14.3h-5.6v-6.7h18.8v6.7h-5.6v14.3h-7.6ZM643.8,112v-21h9.5l3.7,11.9h.2l3.8-11.9h9.6v21.1h-7v-12.9h-.2l-3.9,12.9h-5l-3.8-12.9h-.2v12.9h-6.9l.2-.1Z" />
        <path d="M91.1,165.2l66.9-67.9v56.4c0,14.5,17.3,21.8,27.4,11.5l58.6-66.4V2l-52.7,60.3c-12.3,12.5-33.3,3.6-33.3-14V.5l-60.9,61.8c-12.3,12.5-33.3,3.6-33.3-14V0L0,73.2v96.8l63.7-73.2v56.8c0,14.5,17.3,21.8,27.4,11.5h0v.1Z" />
      </g>
    </g>
  </g>
</svg>